<svg width="489" height="119" viewBox="0 0 489 119" fill="none" xmlns="http://www.w3.org/2000/svg">
<path d="M167.373 95.7812C163.516 95.7812 161.318 94.1211 159.854 90.1172L137.637 31.7676C137.246 30.6445 137.051 29.668 137.051 28.6914C137.051 25.7617 139.297 23.7598 142.617 23.7598C145.4 23.7598 147.109 25.0293 148.037 27.8613L167.324 82.6953H167.617L186.904 27.8125C187.881 24.9316 189.395 23.7598 192.178 23.7598C195.449 23.7598 197.744 25.8105 197.744 28.6426C197.744 29.5703 197.549 30.5469 197.158 31.6211L174.893 90.166C173.379 94.1699 171.23 95.7812 167.373 95.7812ZM220.498 95.9766C205.02 95.9766 195.938 86.1621 195.938 69.5605C195.938 53.252 205.215 42.7051 219.766 42.7051C233.438 42.7051 242.861 52.5684 242.861 66.582C242.861 70 240.908 71.9531 237.637 71.9531H206.582V72.1973C206.582 81.5723 211.855 87.4316 220.254 87.4316C226.016 87.4316 229.629 85.4297 233.535 80.1074C234.658 78.7891 235.732 78.252 237.246 78.252C239.785 78.252 241.641 79.9121 241.641 82.5488C241.641 83.3789 241.348 84.3555 240.908 85.3809C237.539 92.1191 230.068 95.9766 220.498 95.9766ZM206.631 64.5801H232.314C232.07 56.5234 227.041 51.2012 219.717 51.2012C212.441 51.2012 207.168 56.5723 206.631 64.5801ZM256.338 95.9277C253.213 95.9277 251.064 93.8281 251.064 90.3613V48.0273C251.064 44.8047 253.018 42.7051 256.094 42.7051C259.121 42.7051 261.221 44.8047 261.221 48.0762V52.1289H261.465C264.248 46.2695 269.619 42.7539 277.529 42.7539C288.857 42.7539 295.352 49.9805 295.352 61.748V90.3613C295.352 93.8281 293.154 95.9277 290.029 95.9277C286.953 95.9277 284.756 93.8281 284.756 90.3613V63.7988C284.756 56.084 281.143 51.8359 273.818 51.8359C266.396 51.8359 261.611 57.1094 261.611 65.0684V90.3613C261.611 93.8281 259.414 95.9277 256.338 95.9277ZM308.633 82.6953V51.9824H304.922C302.188 51.9824 300.527 50.4199 300.527 47.832C300.527 45.1953 302.188 43.6328 304.922 43.6328H308.633V36.0156C308.633 32.6465 310.732 30.4004 313.955 30.4004C317.129 30.4004 319.229 32.6465 319.229 36.0156V43.6328H325.234C327.969 43.6328 329.629 45.2441 329.629 47.832C329.629 50.4199 327.969 51.9824 325.234 51.9824H319.229V80.3516C319.229 84.4531 320.645 86.3086 324.453 86.6016L325.283 86.6504C328.311 86.9434 329.824 88.1641 329.824 90.6543C329.824 93.8281 327.383 95.4395 322.207 95.4395H321.67C313.027 95.4395 308.633 91.1914 308.633 82.6953ZM351.943 95.8789C341.885 95.8789 334.805 89.6289 334.805 80.4004C334.805 71.416 341.738 65.8984 353.896 65.2148L368.008 64.3848V60.4297C368.008 54.7168 364.15 51.2988 357.705 51.2988C352.627 51.2988 349.258 53.1055 346.328 57.793C345.254 59.3555 343.887 60.0391 342.031 60.0391C339.395 60.0391 337.49 58.2812 337.49 55.6445C337.49 54.5703 337.783 53.3984 338.418 52.2266C341.104 46.416 348.867 42.7051 358.096 42.7051C370.547 42.7051 378.506 49.2969 378.506 59.5996V90.6055C378.506 93.9258 376.406 95.9277 373.428 95.9277C370.498 95.9277 368.496 94.0234 368.398 90.8984V86.5527H368.154C365.176 92.2656 358.633 95.8789 351.943 95.8789ZM354.824 87.5293C362.197 87.5293 368.008 82.4512 368.008 75.7617V71.709L355.312 72.4902C349.014 72.9297 345.449 75.7129 345.449 80.1074C345.449 84.5996 349.209 87.5293 354.824 87.5293ZM394.375 35.8691C391.006 35.8691 388.271 33.1348 388.271 29.8145C388.271 26.4453 391.006 23.8086 394.375 23.8086C397.793 23.8086 400.527 26.4453 400.527 29.8145C400.527 33.1348 397.793 35.8691 394.375 35.8691ZM394.375 95.9277C391.201 95.9277 389.102 93.7305 389.102 90.3613V48.3203C389.102 44.9023 391.201 42.7051 394.375 42.7051C397.549 42.7051 399.648 44.9023 399.648 48.3203V90.3613C399.648 93.7305 397.549 95.9277 394.375 95.9277ZM415.713 95.9277C412.539 95.9277 410.439 93.7793 410.439 90.3613V48.0273C410.439 44.8047 412.49 42.7051 415.469 42.7051C418.398 42.7051 420.449 44.8047 420.449 48.0273V52.4219H420.693C422.109 46.6602 426.846 42.8027 431.973 42.8027C433.828 42.8027 435.244 43.2422 436.123 44.0723C437.1 44.8535 437.539 46.123 437.539 47.7832C437.539 49.4434 437.002 50.6641 435.977 51.4941C434.902 52.4219 433.34 52.8613 431.143 52.8613C423.916 52.9102 420.986 57.7441 420.986 64.1406V90.3613C420.986 93.7793 418.838 95.9277 415.713 95.9277ZM449.6 114.141C444.717 114.141 442.031 112.334 442.031 109.062C442.031 106.816 443.594 105.352 446.133 105.352C447.256 105.352 447.646 105.4 448.867 105.4C451.797 105.4 454.775 103.789 456.68 98.5156L457.656 95.5371L440.469 50.5664C440.078 49.4922 439.883 48.418 439.883 47.5879C439.883 44.707 442.178 42.7051 445.254 42.7051C447.891 42.7051 449.404 43.8281 450.332 46.7578L463.418 85.4297H463.564L476.699 46.7578C477.578 43.877 479.043 42.7051 481.729 42.7051C484.756 42.7051 486.855 44.707 486.855 47.5391C486.855 48.3691 486.66 49.4434 486.318 50.4688L468.496 97.5879C463.955 109.941 459.121 114.141 449.6 114.141Z" fill="white"/>
<path d="M21.9274 81.3762C34.0376 81.3762 43.8549 71.5824 43.8549 59.5011C43.8549 47.4198 34.0376 37.626 21.9274 37.626C9.81725 37.626 0 47.4198 0 59.5011C0 71.5824 9.81725 81.3762 21.9274 81.3762Z" fill="white"/>
<path d="M87.57 81.3762C99.6802 81.3762 109.497 71.5824 109.497 59.5011C109.497 47.4198 99.6802 37.626 87.57 37.626C75.4598 37.626 65.6426 47.4198 65.6426 59.5011C65.6426 71.5824 75.4598 81.3762 87.57 81.3762Z" fill="white"/>
<path d="M32.8199 28.8751C32.8199 40.9564 42.6372 50.7502 54.7474 50.7502C66.8576 50.7502 76.6748 40.9564 76.6748 28.8751C76.6748 16.7938 66.8576 7 54.7474 7C42.6372 7 32.8199 16.7938 32.8199 28.8751Z" fill="white"/>
<path d="M32.8199 90.1251C32.8199 102.206 42.6372 112 54.7474 112C66.8576 112 76.6748 102.206 76.6748 90.1251C76.6748 78.0438 66.8576 68.25 54.7474 68.25C42.6372 68.25 32.8199 78.0438 32.8199 90.1251Z" fill="white"/>
<path d="M54.7497 81.3762C66.8599 81.3762 76.6771 71.5824 76.6771 59.5011C76.6771 47.4198 66.8599 37.626 54.7497 37.626C42.6395 37.626 32.8223 47.4198 32.8223 59.5011C32.8223 71.5824 42.6395 81.3762 54.7497 81.3762Z" fill="#0A0A0A"/>
<path d="M66.1192 47.174L65.564 47.6855C59.4997 53.2765 49.999 53.2769 43.9348 47.686L43.3791 47.174C43.1043 46.9205 42.6774 46.9288 42.4124 47.1932C42.1475 47.4576 42.1391 47.8834 42.3932 48.1576L42.9064 48.7119C48.5106 54.7618 48.5106 64.239 42.9059 70.2892L42.3932 70.8431C42.1391 71.1174 42.1475 71.5431 42.4124 71.8078C42.6774 72.072 43.1043 72.0803 43.3796 71.8262L43.9343 71.3143C49.999 65.7239 59.4993 65.7239 65.5635 71.3147L66.1192 71.827C66.3937 72.0803 66.8209 72.072 67.0857 71.8078C67.3506 71.5431 67.359 71.1174 67.105 70.8431L66.5919 70.2888C60.9873 64.239 60.9873 54.7618 66.5915 48.7114L67.1046 48.1581C67.359 47.8834 67.3506 47.4576 67.0857 47.1932C66.8209 46.9288 66.3937 46.9205 66.1192 47.174Z" fill="white"/>
</svg>
